<?xml version="1.0" encoding="utf-8"?>
<!-- Uploaded to: SVG Repo, www.svgrepo.com, Generator: SVG Repo Mixer Tools -->
<!DOCTYPE svg PUBLIC "-//W3C//DTD SVG 1.1//EN" "http://www.w3.org/Graphics/SVG/1.1/DTD/svg11.dtd">
<svg fill="#000000" width="800px" height="800px" viewBox="0 0 1000 1000" version="1.1" xmlns="http://www.w3.org/2000/svg" xmlns:xlink="http://www.w3.org/1999/xlink"  enable-background="new 0 0 1000 1000" xml:space="preserve">

<g>
<g transform="translate(0.000000,511.000000) scale(0.100000,-0.100000)">
<path d="M2227.5,4969.5c-155.6-66.3-160.7-102-160.7-987.2c0-637.7,7.6-831.6,38.3-951.5c119.9-454,515.3-829,989.7-933.6l145.4-30.6v-762.7V543.8h-160.7c-122.4,0-173.5-10.2-201.5-43.4c-63.8-71.4-74-142.8-33.2-216.8l35.7-71.4H1796.4c-1181,0-1206.5-2.6-1298.4-142.9c-43.4-68.8-48.5-130.1-43.4-928.5c2.6-783.1,7.7-867.3,53.6-1022.9c140.3-446.4,553.5-821.3,1012.7-915.7l137.7-28.1v-788.2v-788.2l-168.4-7.7c-150.5-7.6-176-15.3-221.9-76.5c-53.6-71.4-48.5-147.9,17.8-237.2c33.2-48.5,71.4-51,561.2-58.7l525.5-7.6l63.8,63.8c76.5,79.1,81.6,165.8,10.2,255.1c-45.9,58.7-68.9,66.3-216.8,66.3h-163.3v788.2v785.7l173.5,43.3c466.8,114.8,834.1,456.6,992.3,926c33.2,99.5,43.4,275.5,51,923.4c7.6,438.8,5.1,839.2-5.1,885.1c-7.6,45.9-43.4,119.9-79.1,163.3l-66.3,76.5h298.5h298.5l-66.3-76.5c-35.7-43.4-71.4-125-79.1-188.8c-10.2-58.7-12.8-451.5-7.7-872.4c10.2-696.4,15.3-778,66.3-931.1c150.5-451.5,517.8-793.3,987.2-908.1l165.8-40.8v-785.7v-788.2h-163.3c-148,0-170.9-7.6-216.8-66.3c-66.3-84.2-68.9-165.8-5.1-242.3c48.5-61.2,53.6-61.2,589.2-61.2c535.7,0,540.8,0,589.2,61.2c63.8,76.5,61.2,158.1-5.1,242.3c-45.9,58.7-68.8,66.3-216.8,66.3h-163.2v788.2v785.7l165.8,40.8c474.4,117.3,844.3,461.7,989.7,923.4c53.6,168.3,56.1,221.9,56.1,1022.9V0.5l-71.4,91.8l-71.4,94.4h298.5H6870l-53.6-56.1c-28.1-33.2-63.8-91.8-79.1-130.1c-35.7-94.4-35.7-1476.9-2.5-1701.4c40.8-265.3,193.9-548.4,405.6-744.9c196.4-186.2,367.3-280.6,622.4-341.8l170.9-43.3v-785.7v-788.2H7773c-135.2,0-170.9-10.2-216.8-58.7c-74-79.1-71.4-183.7,7.6-260.2c61.2-63.8,66.3-63.8,545.9-63.8c515.3,0,589.2,12.8,637.7,119.9c40.8,86.7,35.7,119.9-25.5,196.4c-45.9,58.7-68.9,66.3-216.8,66.3h-163.3v788.2v790.7l137.8,28.1c456.6,94.4,874.9,471.9,1012.7,915.7c45.9,153.1,51,242.3,53.6,1010.2c5.1,941.2,0,961.7-168.4,1043.3c-76.5,35.7-221.9,40.8-1198.9,40.8H7066.4l40.8,63.8c43.4,66.3,30.6,147.9-35.7,224.5c-28.1,33.2-79.1,43.4-201.5,43.4h-160.7v760.1v762.7l147.9,30.6c456.6,102,839.2,449,974.4,890.2c45.9,148,51,237.2,51,989.7c0,737.2-5.1,836.7-43.4,895.3c-86.7,132.6-119.9,135.2-1321.3,135.2c-1221.9,0-1249.9-2.6-1323.9-150.5c-56.1-107.1-58.7-1601.9-2.5-1811.1c122.4-466.8,525.5-852,989.7-946.4l145.4-28.1v-765.2V543.8H6166c-125,0-173.5-10.2-204.1-45.9c-51-56.1-56.1-211.7-12.8-255.1c22.9-23-191.3-30.6-966.8-30.6h-999.9l35.7,71.4c40.8,74,30.6,145.4-33.2,216.8c-28.1,33.2-79.1,43.4-201.5,43.4h-160.7v762.7v765.2l147.9,28.1c346.9,71.4,714.2,341.8,877.5,653c135.2,252.5,147.9,357.1,147.9,1229.5c0,890.3-5.1,920.9-165.8,989.7C4502.8,5023.1,2349.9,5023.1,2227.5,4969.5z M4635.5,4283.3c2.5-2.5-12.8-63.8-35.7-137.7l-43.4-132.6h-229.6c-158.2,0-324-20.4-512.7-66.3c-528-122.4-780.6-163.2-984.6-163.2c-191.3,0-512.7,51-650.5,102c-71.4,28.1-63.8,58.7,58.7,199l71.4,81.6l127.5-40.8c86.7-28.1,221.9-43.4,420.9-43.4c255.1-2.6,344.4,10.2,688.7,94.4c410.7,99.5,737.2,142.9,956.6,122.4C4574.2,4291,4632.9,4283.3,4635.5,4283.3z M7722,4283.3c2.5-2.5-12.8-63.8-33.2-135.2l-38.3-127.5l-298.5-15.3c-221.9-10.2-395.4-38.3-668.3-107.1c-469.4-117.3-834.1-142.9-1142.8-79.1c-114.8,23-239.8,53.6-275.5,66.3c-71.4,28.1-63.8,56.1,58.7,199l71.4,81.6l127.5-40.8c86.7-28.1,221.9-43.4,420.9-43.4c255.1-2.6,344.4,10.2,686.2,94.4c426,104.6,724.4,142.9,946.3,122.4C7653.1,4291,7719.4,4285.9,7722,4283.3z M3110.1-542.9c2.6-2.5-10.2-63.8-33.2-132.6l-43.4-125l-285.7-15.3c-196.4-10.2-400.5-43.4-655.6-107.1c-451.5-109.7-772.9-150.5-997.4-130.1c-176,17.9-548.4,99.5-576.5,125c-7.6,7.6,28.1,71.4,79.1,142.8l91.8,125L811.7-701c81.6-25.5,221.9-38.3,451.5-40.8c298.5,0,369.9,7.6,721.9,94.4c436.2,107.1,734.6,145.4,961.7,125C3031-527.6,3105-537.8,3110.1-542.9z M6242.5-537.8c2.5-2.5-12.8-63.8-33.2-132.6l-38.3-130.1l-285.7-15.3c-196.4-10.2-400.5-43.4-655.6-107.1c-510.2-125-808.6-155.6-1091.8-117.4c-239.8,33.2-489.8,97-489.8,125c0,10.2,40.8,71.4,89.3,137.8l86.7,117.3l122.4-38.3c84.2-28,224.5-40.8,454-43.4c301,0,369.9,7.6,727,96.9c431.1,104.6,719.3,140.3,956.6,122.5C6168.5-530.1,6239.9-535.2,6242.5-537.8z M9380-537.8c2.5-2.5-12.8-63.8-35.7-135.2L9303.5-803l-270.4-12.8c-188.8-7.7-403-43.4-716.8-114.8c-525.5-122.5-778-148-1063.7-109.7c-237.2,33.2-466.8,97-466.8,127.5c0,10.2,40.8,74,89.3,137.8l89.3,114.8l119.9-40.8c84.2-25.5,224.5-38.3,454-40.8c301,0,369.9,7.6,727,96.9c423.4,102,711.7,140.3,956.6,122.5C9306.1-530.1,9377.5-535.2,9380-537.8z"/>
</g>
</g>
</svg>